<?xml version="1.0" encoding="utf-8"?>
<!-- Generator: Adobe Illustrator 25.3.1, SVG Export Plug-In . SVG Version: 6.00 Build 0)  -->
<svg version="1.1" id="Layer_1" xmlns="http://www.w3.org/2000/svg" xmlns:xlink="http://www.w3.org/1999/xlink" x="0px" y="0px"
	 viewBox="0 0 229.2 137" style="enable-background:new 0 0 229.2 137;" xml:space="preserve">
<style type="text/css">
	.st0{fill:#30363D;}
	.st1{fill:#A8E5DE;}
	.st2{fill:#90D6CC;}
</style>
<g>
	<g>
		<g>
			<g>
				<g>
					<g>
						
							<ellipse transform="matrix(0.1091 -0.994 0.994 0.1091 102.8983 194.0517)" class="st0" cx="159.7" cy="39.6" rx="39.3" ry="39.3"/>
						<g>
							<path class="st1" d="M190.7,39.6c0,17-13.9,30.8-30.8,30.8c-1.9,0-3.8-0.2-5.7-0.5s-3.6-0.8-5.4-1.5
								c-2.4-0.9-4.8-2.2-6.9-3.7c-3.5-2.4-6.5-5.7-8.6-9.4c-2.7-4.6-4.3-10-4.3-15.7c0-17,13.9-30.8,30.8-30.8c0.1,0,0.2,0,0.3,0
								c4.5,0,8.6,1,12.4,2.7c2.4,1.1,4.7,2.4,6.7,4.1c1.4,1.1,2.7,2.4,3.9,3.8C187.8,24.9,190.7,31.9,190.7,39.6z"/>
							<g>
								<path class="st2" d="M183.2,19.5L154,70c-1.8-0.3-3.6-0.8-5.4-1.5l30.4-52.8L183.2,19.5z"/>
								<path class="st2" d="M172.5,11.5l-30.7,53.2c-3.5-2.4-6.5-5.7-8.6-9.4L160,8.7C164.6,8.8,168.7,9.8,172.5,11.5z"/>
							</g>
						</g>
					</g>
					<g>
						<ellipse class="st0" cx="68.9" cy="39.6" rx="39.3" ry="39.3"/>
						<g>
							<path class="st1" d="M99.8,39.6c0,17-13.9,30.8-30.8,30.8c-1.9,0-3.8-0.2-5.7-0.5c-1.8-0.3-3.6-0.8-5.4-1.5
								c-2.4-0.9-4.8-2.2-6.9-3.7c-3.5-2.4-6.5-5.7-8.6-9.4c-2.7-4.6-4.3-10-4.3-15.7C38.1,22.6,52,8.8,69,8.8c0.1,0,0.2,0,0.3,0
								c4.5,0,8.6,1,12.4,2.7c2.4,1.1,4.7,2.4,6.7,4.1c1.4,1.1,2.7,2.4,3.9,3.8C97,24.9,99.8,31.9,99.8,39.6z"/>
							<g>
								<path class="st2" d="M92.4,19.5L63.2,70c-1.8-0.3-3.6-0.8-5.4-1.5l30.4-52.8L92.4,19.5z"/>
								<path class="st2" d="M81.7,11.5L51,64.7c-3.5-2.4-6.5-5.7-8.6-9.4L69.3,8.8C73.7,8.8,77.9,9.8,81.7,11.5z"/>
							</g>
						</g>
					</g>
				</g>
				<path class="st0" d="M121.8,24.3h-14.9c0.7,1.6,1.3,3.3,1.7,5.1H120C120.5,27.7,121.1,26,121.8,24.3z"/>
			</g>
		</g>
		<g>
			<g>
				<path class="st0" d="M114.3,113.4c-3.7,5.2-12.6,15.9-27.7,20.4c-12.2,3.7-34.3,5.2-43.6-8.2c-3.7-5.3-4.2-11.3-4.1-15.5
					c1.2,1.7,3.7,5.2,8.4,7.3c3.5,1.6,6.7,1.8,7.3,1.8c3.7,0.1,7.1-0.9,10.5-2.9c9.2-5.3,8.8-10.8,17.5-18c3-2.5,10.5-8.5,20.7-8.6
					c4.8,0,8.6,1.2,11,2.2C114.3,99.2,114.3,106.4,114.3,113.4z"/>
				<path class="st0" d="M114.3,113.4c3.7,5.2,12.6,15.9,27.7,20.4c12.2,3.7,34.3,5.2,43.6-8.2c3.7-5.3,4.2-11.3,4.1-15.5
					c-1.2,1.7-3.7,5.2-8.4,7.3c-3.5,1.6-6.7,1.8-7.3,1.8c-3.7,0.1-7.1-0.9-10.5-2.9c-9.2-5.3-8.8-10.8-17.5-18
					c-3-2.5-10.5-8.5-20.7-8.6c-4.8,0-8.6,1.2-11,2.2C114.3,99.2,114.3,106.4,114.3,113.4z"/>
			</g>
		</g>
	</g>
</g>
</svg>
