<?xml version="1.0" encoding="UTF-8"?>
<!-- Generator: Adobe Illustrator 27.3.1, SVG Export Plug-In . SVG Version: 6.00 Build 0)  -->
<svg xmlns="http://www.w3.org/2000/svg" xmlns:xlink="http://www.w3.org/1999/xlink" version="1.1" id="Layer_1" x="0px" y="0px" width="144px" height="105px" viewBox="0 0 144 105" style="enable-background:new 0 0 144 105;" xml:space="preserve">
<style type="text/css">
	.st0{fill:#9A9A9A;}
</style>
<g id="_x35_2Qx5C.tif_1_">
	<g>
		<g>
			<path class="st0" d="M134.8,19.5c2.6,0,5.1,0,7.7,0c0,18.1,0,35.9,0,54c0,0.2-1.7,8.5-8.1,10.6c-1.7,0.5-3.1,0.6-5.8,0.5     c-4.6-0.3-7.7-3.1-10.1-7c-4.1-7.5-8.4-14.7-12.5-21.9c-0.2-0.2-0.2-0.5-0.5-0.7c0,0,0,0-0.2,0c0,0.2,0,0.7,0,1     c0,5.3,0,10.6,0,15.7c0,6.3-3.6,11.1-9.4,12.8c-0.7,0.2-1.4,0.2-1.9,0.5c-0.7,0-1.4,0-2.2,0c0,0-0.2,0-0.2-0.2     c-4.6-0.5-7.9-3.1-10.1-7c-4.1-7.5-8.4-14.7-12.5-21.9c-0.2-0.2-0.2-0.5-0.5-0.7c-0.2,0.5-0.2,0.7-0.2,1c0,5.5,0,10.8,0,16.4     c0,5.8-3.9,10.6-9.4,12c-0.7,0.2-1.2,0.2-1.9,0.5c-7.7,0-15.7,0-23.4,0c-1.2-0.2-2.4-0.2-3.6-0.5C16.5,82.1,5.9,71.8,3.2,58.5     c-0.2-1.4-0.5-2.9-0.7-4.6c0-1.4,0-2.6,0-4.1c0-1.2,0.2-2.4,0.5-3.6c1.9-12.8,12.3-23.6,25.3-26c1.7-0.2,3.1-0.7,4.6-0.7     c4.3-0.2,8.7,0,13,0c0,2.6,0,5.1,0,7.7c-3.6,0-7,0-10.1,0c-1.7,0-3.6,0.2-5.3,0.5C17,30.1,7.6,44.1,10.7,57.3     c2.6,11.8,12.5,19.8,24.6,19.8c6.3,0,12.8,0,19,0c3.6,0,5.5-1.9,5.5-5.5c0-12.8,0-25.8,0-38.5c0-0.2,0-0.7,0-1     c0-0.7,0.5-1.2,1.2-1.4c0.7-0.2,1.4,0,1.9,0.5c0.2,0.2,0.2,0.5,0.5,0.7C71.3,45.6,79.3,59.6,87,73.3c0.2,0.7,0.7,1.2,1.2,1.7     c1.7,2.4,4.8,2.6,7,1c1.4-1.2,1.9-2.6,1.9-4.3c0-12.8,0-25.8,0-38.5c0-0.2,0-0.7,0-1c0-0.7,0.5-1.4,1.4-1.7     c1-0.2,1.4,0.2,1.9,0.7c0.2,0.2,0.2,0.5,0.5,0.7c7.5,12.8,14.7,25.8,22.2,38.5c0.7,1.4,1.7,2.9,2.6,4.3c1.7,2.6,5.5,2.9,7.7,0.5     c1-1.2,1.4-2.6,1.4-4.1c0-16.9,0-34,0-50.8C134.8,20.2,134.8,20,134.8,19.5z"></path>
			<path class="st0" d="M100.3,19.7c4.6,0.1,7.7,3.1,10.1,7c4.1,7.2,8.4,14.7,12.5,21.9c0.2,0.2,0.2,0.5,0.7,1c0-0.5,0-0.7,0-1     c0-9.4,0-18.8,0-28.2c0-0.2,0-0.5,0-0.7c2.6,0,5.3,0,7.9,0c0,0.5,0,0.7,0,1.2c0,16.9,0,33.7,0,50.6c0,1.7-0.2,2.4-1.4,2.6     c-1,0.2-1.7-0.2-2.4-1.4c-6.5-11.6-13-22.9-19.8-34.4c-1.4-2.6-3.1-5.3-4.6-7.9c-1.7-2.6-4.8-3.4-7.2-1.9     c-1.7,1.2-2.2,2.9-2.2,4.8c0,12.8,0,25.5,0,38.3c0,0.5,0,0.7,0,1.2c-0.2,0.5-0.5,1.2-1,1.4s-1.2,0-1.7-0.2     c-0.2-0.2-0.5-0.7-0.7-1C83,60,75.6,46.7,68.1,33.7c-0.7-1.2-1.4-2.6-2.2-3.9c-1.2-1.7-2.6-2.4-4.6-2.2C58.7,27.8,57,30,57,32.9     c0,13,0,26,0,39c0,1.9-0.5,2.4-2.4,2.4c-6.5,0-12.8,0-19.3,0c-1,0-2.2,0-3.1-0.2c-12.8-1.7-21-13.5-18.5-26     c2.1-9.1,10-16.3,19.7-17.1c4.1-0.2,8.4,0,12.5-0.2h0.2c0,2.4,0,5.1,0,7.7c-0.5,0-0.7,0-1,0c-3.1,0-6.3,0-9.6,0     c-0.7,0-1.7,0-2.4,0.2c-7.5,1.2-12.3,7.5-11.8,14.9c0.2,6.5,6,12.5,12.3,12.8c4.6,0.2,9.2,0,13.7,0c1,0,1.7-0.7,1.9-1.7     c0-0.2,0-0.7,0-1c0-10.6,0-21.2,0-31.8c0-5.8,4.3-10.6,9.9-11.8c0.5,0,1-0.2,1.4-0.2c0.7,0,1.7,0,2.4,0c0,0,0.2,0,0.2,0.2     c4.8,0.7,7.9,3.1,10.4,7.2c4.1,7.2,8.2,14.5,12.5,21.9c0.2,0.2,0.2,0.5,0.5,0.7c0,0,0,0,0.2,0c0-0.2,0-0.7,0-1     c0-5.3,0-10.8,0-16.1s2.5-9.4,7.5-11.6C96.5,20.1,98.9,19.7,100.3,19.7z"></path>
		</g>
	</g>
</g>
</svg>
