<?xml version="1.0" encoding="utf-8"?>
<!-- Generator: Adobe Illustrator 25.3.1, SVG Export Plug-In . SVG Version: 6.00 Build 0)  -->
<svg version="1.1" id="Layer_1" xmlns="http://www.w3.org/2000/svg" xmlns:xlink="http://www.w3.org/1999/xlink" x="0px" y="0px"
	 viewBox="0 0 229.2 137" style="enable-background:new 0 0 229.2 137;" xml:space="preserve">
<style type="text/css">
	.st0{fill:#30363D;}
	.st1{fill:#CDD4D6;}
	.st2{fill:#BCC0C1;}
	.st3{fill:#6FBB44;}
	.st4{fill:#5A6274;}
	.st5{fill:#394047;}
	.st6{fill:#333C49;}
	.st7{fill:#3F4A5A;}
</style>
<g>
	<g>
		<path class="st0" d="M188.7,97.8V4.4c0-2.4-2-4.4-4.4-4.4H32.5c-2.4,0-4.4,2-4.4,4.4v93.4H188.7z"/>
		<path class="st1" d="M27.8,98v13.5c0,2.6,2.1,4.7,4.7,4.7h151.8c2.6,0,4.7-2.1,4.7-4.7V98H27.8z"/>
		<path class="st1" d="M136.1,136.2c0,0-1.2-0.6-2.5-1.1c-1.4-0.5-3.1-1.2-4.2-1.7c-1.8-0.8-1.9-1.4-2.6-4.3
			c-0.7-3.2-1.4-9.9-1.7-12.8H91.6c-0.3,2.9-0.9,9.6-1.7,12.8c-0.7,2.9-0.8,3.5-2.6,4.3c-1,0.5-2.7,1.1-4.1,1.7l0,0
			c-1.4,0.5-2.5,0.9-2.5,0.9s-1.1,0.6,0.7,0.7h54C137,136.7,136.1,136.2,136.1,136.2z"/>
		<path class="st2" d="M125.6,119.8c-0.2-1.4-0.3-2.6-0.3-3.5H91.6c-0.1,0.9-0.2,2.1-0.3,3.5H125.6z"/>
		<rect x="35.6" y="7.6" class="st3" width="145.6" height="82"/>
	</g>
	<g>
		<path class="st4" d="M199.2,133.8c0,1.7-1.4,3.1-3.1,3.1H144c-1.7,0-3.1-1.4-3.1-3.1v-76c0-1.7,1.4-3.1,3.1-3.1h52.2
			c1.7,0,3.1,1.4,3.1,3.1L199.2,133.8L199.2,133.8z"/>
		<path class="st0" d="M144,136.5c-1.4,0-2.6-1.2-2.6-2.6v-76c0-1.4,1.2-2.6,2.6-2.6h52.2c1.4,0,2.6,1.2,2.6,2.6v76
			c0,1.4-1.2,2.6-2.6,2.6H144z"/>
		<g>
			<path class="st4" d="M170.6,58.4c0,0.3-0.3,0.5-0.5,0.5c-0.3,0-0.5-0.2-0.5-0.5c0-0.3,0.3-0.5,0.5-0.5
				C170.3,57.9,170.6,58.1,170.6,58.4z"/>
		</g>
		<path class="st5" d="M172.8,133.5c0,0.3-0.3,0.6-0.6,0.6h-4.3c-0.3,0-0.6-0.3-0.6-0.6v-1.2c0-0.3,0.3-0.6,0.6-0.6h4.3
			c0.3,0,0.6,0.3,0.6,0.6V133.5z"/>
		<rect x="144.7" y="61.5" class="st3" width="50.8" height="67.7"/>
	</g>
	<g>
		<path class="st0" d="M144.4,73.9h-25.6c-2.4,0-4.4,2-4.4,4.4v54.3c0,2.4,2,4.4,4.4,4.4h25.6c2.4,0,4.4-2,4.4-4.4V78.3
			C148.8,75.8,146.8,73.9,144.4,73.9z"/>
		<rect x="117" y="83.4" class="st3" width="29.4" height="44.1"/>
		<path class="st5" d="M129,133.3c-0.5,0-0.9-0.4-0.9-0.9v-0.3c0-0.5,0.4-0.9,0.9-0.9h5.4c0.5,0,0.9,0.4,0.9,0.9v0.3
			c0,0.5-0.4,0.9-0.9,0.9H129z"/>
		<g>
			<path class="st6" d="M132.9,78.6c0,0.7-0.5,1.2-1.2,1.2c-0.7,0-1.2-0.5-1.2-1.2c0-0.7,0.5-1.2,1.2-1.2
				C132.3,77.4,132.9,78,132.9,78.6z"/>
			<path class="st7" d="M132.1,78.6c0,0.3-0.2,0.4-0.4,0.4c-0.3,0-0.4-0.2-0.4-0.4s0.2-0.4,0.4-0.4
				C131.9,78.2,132.1,78.4,132.1,78.6z"/>
		</g>
	</g>
</g>
<g>
	<path class="st0" d="M135.3,103.1c0-0.3-0.2-0.4-0.4-0.4h-7.8c-0.3,0-0.4,0.2-0.4,0.4v7c0,0.3,0.2,0.4,0.4,0.4h7.8
		c0.3,0,0.4-0.2,0.4-0.4V103.1z"/>
	<path class="st0" d="M134,102.7h-1.1v-1.1c0-0.5-0.2-1-0.6-1.4c-0.4-0.4-0.8-0.6-1.4-0.6c-0.5,0-1,0.2-1.4,0.6
		c-0.4,0.4-0.6,0.8-0.6,1.4v1.1h-1.1v-1.1c0-0.8,0.3-1.6,0.9-2.2c0.6-0.6,1.4-0.9,2.2-0.9c0.8,0,1.6,0.3,2.2,0.9
		c0.6,0.6,0.9,1.4,0.9,2.2V102.7z"/>
	<path class="st0" d="M135.3,109.5v0.6c0,0.3-0.2,0.4-0.4,0.4h-7.8c-0.3,0-0.4-0.2-0.4-0.4v-0.6H135.3z"/>
</g>
<g>
	<path class="st0" d="M178.3,90.7c0-0.4-0.3-0.7-0.7-0.7h-12.9c-0.4,0-0.7,0.3-0.7,0.7v11.4c0,0.4,0.3,0.7,0.7,0.7h12.9
		c0.4,0,0.7-0.3,0.7-0.7V90.7z"/>
	<path class="st0" d="M176.2,90h-1.9v-1.9c0-0.8-0.3-1.6-0.9-2.2S172,85,171.2,85s-1.6,0.3-2.2,0.9s-0.9,1.4-0.9,2.2V90h-1.9v-1.9
		c0-1.4,0.5-2.6,1.5-3.6c0.9-0.9,2.2-1.5,3.6-1.5c1.4,0,2.6,0.5,3.6,1.5c0.9,0.9,1.5,2.2,1.5,3.6L176.2,90L176.2,90z"/>
	<path class="st0" d="M178.3,101.2v1c0,0.4-0.3,0.7-0.7,0.7h-12.9c-0.4,0-0.7-0.3-0.7-0.7v-1H178.3z"/>
</g>
<g>
	<path class="st0" d="M119.6,43.2c0-0.7-0.5-1.2-1.2-1.2H97.6c-0.7,0-1.2,0.5-1.2,1.2v18.4c0,0.7,0.5,1.2,1.2,1.2h20.8
		c0.7,0,1.2-0.5,1.2-1.2V43.2z"/>
	<path class="st0" d="M116.2,42h-3v-3c0-1.4-0.5-2.6-1.5-3.6c-1-1-2.2-1.5-3.6-1.5c-1.4,0-2.6,0.5-3.6,1.5c-1,1-1.5,2.2-1.5,3.6v3
		h-3v-3c0-2.2,0.8-4.2,2.4-5.7c1.5-1.5,3.6-2.4,5.7-2.4c2.2,0,4.2,0.8,5.7,2.4c1.5,1.5,2.4,3.6,2.4,5.7L116.2,42L116.2,42z"/>
	<path class="st0" d="M119.6,60v1.6c0,0.7-0.5,1.2-1.2,1.2H97.6c-0.7,0-1.2-0.5-1.2-1.2V60H119.6z"/>
</g>
</svg>
