<?xml version="1.0" encoding="UTF-8"?>
<!-- Generator: Adobe Illustrator 27.3.1, SVG Export Plug-In . SVG Version: 6.00 Build 0)  -->
<svg xmlns="http://www.w3.org/2000/svg" xmlns:xlink="http://www.w3.org/1999/xlink" version="1.1" id="Layer_1" x="0px" y="0px" width="437px" height="105px" viewBox="0 0 437 105" style="enable-background:new 0 0 437 105;" xml:space="preserve">
<style type="text/css">
	.st0{fill:#666666;}
	.st1{fill:#9E9F9F;}
	.st2{fill:#FFFFFF;}
</style>
<path class="st0" d="M105.3,65.3c-0.5,0-1,0-1.6-0.1c-0.5-0.1-1-0.2-1.5-0.4c-0.5-0.2-1-0.4-1.4-0.7c-0.4-0.3-0.8-0.6-1.2-1  c-0.4-0.4-0.7-0.8-1-1.2S98,61,97.8,60.5c-0.2-0.5-0.4-1-0.5-1.5s-0.2-1-0.2-1.5s0-1,0.1-1.6c0.1-0.5,0.2-1,0.4-1.5  c0.2-0.5,0.4-0.9,0.7-1.4c0.3-0.4,0.6-0.8,1-1.2s0.8-0.7,1.2-1c0.4-0.3,0.9-0.5,1.4-0.7s1-0.4,1.5-0.5s1-0.2,1.6-0.2  c0.5,0,1,0,1.6,0.1c0.5,0.1,1,0.2,1.5,0.4s0.9,0.4,1.4,0.7c0.4,0.3,0.8,0.6,1.2,1c0.4,0.4,0.7,0.8,1,1.2s0.5,0.9,0.7,1.4  s0.4,1,0.5,1.5s0.2,1,0.2,1.6c0,0.5,0,1-0.1,1.6c-0.1,0.5-0.2,1-0.4,1.5c-0.2,0.5-0.4,1-0.7,1.4c-0.3,0.4-0.6,0.8-1,1.2  s-0.8,0.7-1.2,1c-0.4,0.3-0.9,0.5-1.4,0.7s-1,0.3-1.5,0.4C106.4,65.3,105.9,65.4,105.3,65.3L105.3,65.3z M113.1,45.6l-0.5-0.6  c-1.2-1.3-2.5-2.2-4.1-2.9c-1.6-0.6-3.2-0.9-4.9-0.8c-8.2,0-14.6,7.1-14.6,16.2s6.4,16.2,14.6,16.2c1.7,0.1,3.4-0.2,4.9-0.8  c1.6-0.6,3-1.6,4.1-2.9l0.5-0.6v3.4h8.7V28.9l-8.7,3.1V45.6z"></path>
<path class="st0" d="M131,28.2c-0.7,0-1.4,0.1-2,0.4c-0.7,0.3-1.2,0.7-1.7,1.2s-0.9,1.1-1.2,1.7c-0.3,0.7-0.4,1.3-0.4,2  c0,0.7,0.1,1.4,0.4,2c0.3,0.7,0.7,1.2,1.2,1.7s1.1,0.9,1.7,1.2c0.7,0.3,1.3,0.4,2,0.4s1.4-0.1,2-0.4c0.7-0.3,1.2-0.7,1.7-1.2  s0.9-1.1,1.2-1.7c0.3-0.7,0.4-1.3,0.4-2s-0.1-1.4-0.4-2c-0.3-0.6-0.7-1.2-1.2-1.7s-1.1-0.9-1.7-1.2C132.3,28.3,131.7,28.2,131,28.2z  "></path>
<rect x="126.6" y="42.1" class="st0" width="8.7" height="30.6"></rect>
<rect x="178" y="42.1" class="st0" width="8.7" height="30.6"></rect>
<path class="st0" d="M200.6,61.9V50.5h5.2l3.3-8.4h-8.4v-8.6L192,37v24.8c0,7.7,4,11.2,12.7,11.2c1.7,0,3.3-0.1,5-0.3l-4.1-7.9  C202.3,64.8,200.6,64.8,200.6,61.9z"></path>
<path class="st0" d="M225.8,65.3c-0.5,0-1,0-1.6-0.1c-0.5-0.1-1-0.2-1.5-0.4c-0.5-0.2-1-0.4-1.4-0.7c-0.4-0.3-0.8-0.6-1.2-1  s-0.7-0.8-1-1.2s-0.6-0.9-0.8-1.4s-0.4-1-0.5-1.5s-0.2-1-0.2-1.5s0-1,0.1-1.6c0.1-0.5,0.2-1,0.4-1.5s0.4-0.9,0.7-1.4  c0.3-0.4,0.6-0.8,1-1.2s0.8-0.7,1.2-1s0.9-0.5,1.4-0.7s1-0.4,1.5-0.5s1-0.2,1.6-0.2c0.5,0,1,0,1.6,0.1c0.5,0.1,1,0.2,1.5,0.4  s0.9,0.4,1.4,0.7c0.4,0.3,0.8,0.6,1.2,1s0.7,0.8,1,1.2s0.5,0.9,0.7,1.4s0.4,1,0.5,1.5s0.2,1,0.2,1.6c0,0.5,0,1-0.1,1.6  c-0.1,0.5-0.2,1-0.4,1.5s-0.4,1-0.7,1.4s-0.6,0.8-1,1.2s-0.8,0.7-1.2,1c-0.4,0.3-0.9,0.5-1.4,0.7s-1,0.3-1.5,0.4  C226.8,65.3,226.3,65.4,225.8,65.3L225.8,65.3z M233.5,45.6L233,45c-1.2-1.3-2.5-2.2-4.1-2.9c-1.6-0.6-3.2-0.9-4.9-0.8  c-8.2,0-14.6,7.1-14.6,16.2s6.4,16.2,14.6,16.2c1.7,0.1,3.4-0.2,4.9-0.8c1.6-0.6,3-1.6,4.1-2.9l0.5-0.6v3.4h8.7V42.1h-8.7V45.6z"></path>
<polygon class="st0" points="247,72.7 255.7,72.7 255.7,27.9 247,31 "></polygon>
<path class="st0" d="M272.4,33.3l-8.8,3.1v5.7h-3v8.4h3v11.3c-0.2,1.5,0,3,0.4,4.4c0.4,1.4,1.1,2.8,2,3.9c1.8,1.9,4.6,2.7,8.9,2.7  c1.2,0,2.5-0.1,3.9-0.2v-7.9c-0.7,0-1.3,0.1-1.8,0.1c-1.2,0.1-2.3-0.1-3.4-0.6c-0.4-0.3-0.8-0.6-1-1s-0.3-0.9-0.3-1.4V50.5h6.4v-8.4  h-6.4L272.4,33.3z"></path>
<path class="st0" d="M310.2,54.5l0.1-0.4c0.2-0.7,0.6-1.4,1-2.1c0.5-0.6,1-1.2,1.6-1.6c0.6-0.5,1.3-0.8,2.1-1.1  c0.7-0.2,1.5-0.4,2.3-0.4s1.5,0.1,2.3,0.4c0.7,0.2,1.4,0.6,2.1,1.1c0.6,0.5,1.2,1,1.6,1.6c0.5,0.6,0.8,1.3,1,2.1l0.1,0.4H310.2z   M317.5,41.3c-1.1,0-2.1,0-3.2,0.2s-2.1,0.5-3.1,0.9s-2,0.9-2.9,1.5s-1.7,1.3-2.5,2c-0.8,0.8-1.4,1.6-2,2.5s-1.1,1.8-1.5,2.8  s-0.7,2-0.9,3.1c-0.2,1.1-0.3,2.1-0.2,3.2c0,9.5,7,16.2,17,16.2c1.3,0.1,2.5,0,3.7-0.2s2.4-0.6,3.6-1.1c1.1-0.5,2.2-1.2,3.2-2  s1.9-1.7,2.6-2.7l-7-4c-0.8,0.8-1.8,1.3-2.8,1.7c-1,0.4-2.1,0.6-3.2,0.6c-4,0-6.7-1.5-7.8-4.6l-0.1-0.4h22.3  c0.2-1.1,0.3-2.3,0.3-3.4c0-1,0-2.1-0.2-3.1s-0.4-2-0.8-3s-0.8-1.9-1.4-2.8c-0.6-0.9-1.2-1.7-1.9-2.5c-0.7-0.8-1.5-1.4-2.4-2  s-1.8-1.1-2.7-1.5c-1-0.4-2-0.7-3-0.9C319.6,41.4,318.5,41.3,317.5,41.3z"></path>
<path class="st0" d="M355.8,41.3c-1.7-0.1-3.2,0.2-4.8,0.8c-1.5,0.6-2.8,1.6-3.9,2.9l-0.5,0.8v-3.4l-8.7,3.1v27.3h8.7V56  c0-4.3,2.2-6.7,6.1-6.7c0.4,0,0.8,0,1.2,0.1c0.4,0.1,0.8,0.2,1.1,0.3c0.4,0.1,0.7,0.3,1,0.5s0.6,0.5,0.9,0.8s0.5,0.6,0.7,0.9  c0.2,0.3,0.4,0.7,0.5,1.1c0.1,0.4,0.2,0.8,0.3,1.1c0,0.4,0,0.8,0,1.2v17.5h8.7V53.9C367.1,45.2,361.4,41.3,355.8,41.3z"></path>
<path class="st0" d="M388.6,65.3c-0.5,0-1,0-1.6-0.1c-0.5-0.1-1-0.2-1.5-0.4c-0.5-0.2-1-0.4-1.4-0.7c-0.4-0.3-0.8-0.6-1.2-1  c-0.4-0.4-0.7-0.8-1-1.2s-0.6-0.9-0.8-1.4c-0.2-0.5-0.4-1-0.5-1.5s-0.2-1-0.2-1.5s0-1,0.1-1.6c0.1-0.5,0.2-1,0.4-1.5  c0.2-0.5,0.4-0.9,0.7-1.4c0.3-0.4,0.6-0.8,1-1.2s0.8-0.7,1.2-1c0.4-0.3,0.9-0.5,1.4-0.7s1-0.4,1.5-0.5s1-0.2,1.5-0.2s1,0,1.6,0.1  c0.5,0.1,1,0.2,1.5,0.4s0.9,0.4,1.4,0.7c0.4,0.3,0.8,0.6,1.2,1c0.4,0.4,0.7,0.8,1,1.2s0.5,0.9,0.7,1.4s0.4,1,0.5,1.5s0.2,1,0.2,1.6  c0,0.5,0,1-0.1,1.6c-0.1,0.5-0.2,1-0.4,1.5c-0.2,0.5-0.4,1-0.7,1.4c-0.3,0.4-0.6,0.8-1,1.2s-0.8,0.7-1.2,1c-0.4,0.3-0.9,0.5-1.4,0.7  s-1,0.3-1.5,0.4C389.6,65.3,389.1,65.4,388.6,65.3L388.6,65.3z M396.3,45.6l-0.5-0.6c-1.2-1.3-2.5-2.2-4.1-2.9  c-1.6-0.6-3.2-0.9-4.9-0.8c-8.2,0-14.6,7.1-14.6,16.2s6.4,16.2,14.6,16.2c1.7,0.1,3.4-0.2,4.9-0.8c1.6-0.6,3-1.6,4.1-2.9l0.5-0.6  v3.4h8.7v-43l-8.7,3.1V45.6z"></path>
<path class="st0" d="M304.1,41.5c-0.8-0.2-1.7-0.3-2.5-0.3h-0.1h-0.1c-1.6-0.1-3.2,0.1-4.7,0.8c-1.5,0.6-2.8,1.5-3.9,2.7l-0.5,0.7  v-3.2h-0.2v-0.1l-8.7,0.3v30.2h8.9V56c0-4.2,2.1-6.6,5.8-6.7C299.5,46.2,301.5,43.6,304.1,41.5z"></path>
<path class="st0" d="M156.6,65.3c-0.5,0-1,0-1.6-0.1c-0.5-0.1-1-0.2-1.5-0.4c-0.5-0.2-1-0.4-1.4-0.7c-0.4-0.3-0.8-0.6-1.2-1  s-0.7-0.8-1-1.2s-0.6-0.9-0.8-1.4s-0.4-1-0.5-1.5s-0.2-1-0.2-1.5s0-1,0.1-1.6c0.1-0.5,0.2-1,0.4-1.5s0.4-0.9,0.7-1.4  c0.3-0.4,0.6-0.8,1-1.2s0.8-0.7,1.2-1s0.9-0.5,1.4-0.7s1-0.4,1.5-0.5s1-0.2,1.6-0.2c0.5,0,1,0,1.6,0.1c0.5,0.1,1,0.2,1.5,0.4  s0.9,0.4,1.4,0.7c0.4,0.3,0.8,0.6,1.2,1s0.7,0.8,1,1.2s0.5,0.9,0.7,1.4s0.4,1,0.5,1.5s0.2,1,0.2,1.6c0,0.5,0,1-0.1,1.6  s-0.2,1-0.4,1.5s-0.4,1-0.7,1.4s-0.6,0.8-1,1.2s-0.8,0.7-1.2,1c-0.4,0.3-0.9,0.5-1.4,0.7s-1,0.3-1.5,0.4  C157.7,65.3,157.1,65.4,156.6,65.3L156.6,65.3z M164.3,45.6l-0.5-0.6c-1.2-1.3-2.5-2.2-4.1-2.9c-1.6-0.6-3.2-0.9-4.9-0.8  c-8.2,0-14.6,7.1-14.6,16.2s6.4,16.2,14.6,16.2c1.7,0.1,3.3-0.2,4.8-0.8c1.6-0.6,2.9-1.5,4.1-2.7l0.5-0.6v5.8c0,0.5-0.1,1-0.2,1.5  c-0.1,0.5-0.3,1-0.5,1.4c-0.2,0.5-0.4,0.9-0.7,1.3s-0.6,0.8-1,1.1c-0.4,0.3-0.7,0.6-1.2,0.9c-0.4,0.3-0.9,0.5-1.3,0.7  c-0.5,0.2-0.9,0.3-1.4,0.4s-1,0.1-1.5,0.1c-0.8,0.1-1.6,0-2.4-0.2c-0.8-0.2-1.5-0.5-2.2-0.9s-1.3-0.9-1.8-1.6c-0.5-0.6-1-1.3-1.3-2  l-0.2-0.7l-7.9,2.8l0.2,0.7c0.6,1.6,1.4,3,2.5,4.3s2.3,2.4,3.7,3.3s2.9,1.6,4.5,2.1s3.3,0.7,4.9,0.6c9.5,0,16.6-6.8,16.6-15.8V42.1  h-8.8L164.3,45.6L164.3,45.6z"></path>
<path class="st0" d="M182.5,28.2c-0.7,0-1.4,0.1-2,0.4c-0.7,0.3-1.2,0.7-1.7,1.2s-0.9,1.1-1.2,1.7c-0.3,0.7-0.4,1.3-0.4,2  c0,0.7,0.1,1.4,0.4,2c0.3,0.7,0.7,1.2,1.2,1.7s1.1,0.9,1.7,1.2c0.7,0.3,1.3,0.4,2,0.4s1.4-0.1,2-0.4c0.7-0.3,1.2-0.7,1.7-1.2  s0.9-1.1,1.2-1.7c0.3-0.7,0.4-1.3,0.4-2s-0.1-1.4-0.4-2c-0.3-0.6-0.7-1.2-1.2-1.7s-1.1-0.9-1.7-1.2  C183.9,28.3,183.2,28.2,182.5,28.2z"></path>
<path class="st0" d="M423.6,53.7c-2.6-0.7-4.7-1.2-4.7-2.7c0-1.3,1.1-2,2.9-2c0.7,0,1.3,0.1,1.9,0.4c0.6,0.3,1.1,0.7,1.6,1.2l8-2.9  l0.2-0.1c-0.6-1-1.4-1.9-2.2-2.7c-0.9-0.8-1.8-1.5-2.8-2s-2.1-1-3.2-1.2c-1.1-0.3-2.3-0.4-3.4-0.4c-5.9,0-11.9,3.1-11.9,9.9  c0,6.7,6.1,8.4,10.6,9.6c2.7,0.7,4.8,1.3,4.8,2.8c0,1-0.6,2.2-3.7,2.2c-0.9,0.1-1.8-0.1-2.6-0.5c-0.8-0.4-1.5-1-2.1-1.7l-8.3,2.9  l0,0c2.3,4.6,6.8,7,13,7c6.1,0,12.7-2.6,12.7-9.9C434.2,56.5,428.1,54.9,423.6,53.7z"></path>
<rect x="0.2" y="13.6" class="st1" width="76.9" height="76.9"></rect>
<path class="st2" d="M63.5,47.1H43.7V27.3c0-0.1-0.1-0.3-0.2-0.4c-0.1-0.1-0.2-0.2-0.4-0.2h-9c-0.1,0-0.3,0.1-0.4,0.2  c-0.1,0.1-0.2,0.2-0.2,0.4v19.8H13.8c-0.1,0-0.3,0.1-0.4,0.2c-0.1,0.1-0.2,0.2-0.2,0.4v9c0,0.1,0.1,0.3,0.2,0.4  c0.1,0.1,0.2,0.2,0.4,0.2h19.8V77c0,0.1,0.1,0.3,0.2,0.4c0.1,0.1,0.2,0.2,0.4,0.2h9c0.1,0,0.3-0.1,0.4-0.2c0.1-0.1,0.2-0.2,0.2-0.4  V57.2h19.8c0.1,0,0.3-0.1,0.4-0.2c0.1-0.1,0.2-0.2,0.2-0.4v-9c0-0.1-0.1-0.3-0.2-0.4C63.8,47.2,63.7,47.1,63.5,47.1z"></path>
<path class="st2" d="M15.2,60.2h6.4c0.2,0,0.5,0,0.7,0.1s0.4,0.2,0.6,0.4s0.3,0.4,0.4,0.6c0.1,0.2,0.1,0.5,0.1,0.7v3.9  c0,0.2,0,0.5-0.1,0.7s-0.2,0.4-0.4,0.6c-0.2,0.2-0.4,0.3-0.6,0.4s-0.5,0.1-0.7,0.1h-6.4c-0.2,0-0.5,0-0.7-0.1s-0.4-0.2-0.6-0.4  c-0.2-0.2-0.3-0.4-0.4-0.6c-0.1-0.2-0.1-0.5-0.1-0.7V62c0-0.2,0-0.5,0.1-0.7s0.2-0.4,0.4-0.6c0.2-0.2,0.4-0.3,0.6-0.4  C14.7,60.2,14.9,60.2,15.2,60.2z"></path>
<path class="st2" d="M15.2,70h14c0.2,0,0.5,0,0.7,0.1s0.4,0.2,0.6,0.4c0.2,0.2,0.3,0.4,0.4,0.6s0.1,0.5,0.1,0.7v3.9  c0,0.2,0,0.5-0.1,0.7s-0.2,0.4-0.4,0.6c-0.2,0.2-0.4,0.3-0.6,0.4s-0.5,0.1-0.7,0.1h-14c-0.2,0-0.5,0-0.7-0.1s-0.4-0.2-0.6-0.4  c-0.2-0.2-0.3-0.4-0.4-0.6c-0.1-0.2-0.1-0.5-0.1-0.7v-3.9c0-0.2,0-0.5,0.1-0.7s0.2-0.4,0.4-0.6s0.4-0.3,0.6-0.4  C14.7,70,14.9,70,15.2,70z"></path>
<path class="st0" d="M430.6,32.1c0.7,0,1.1-0.3,1.1-1c0-0.2,0-0.3-0.1-0.4s-0.1-0.3-0.2-0.4s-0.2-0.2-0.4-0.2c-0.1,0-0.3-0.1-0.4,0  h-1.1v2.1L430.6,32.1z M428.9,29.5h1.7c0.2,0,0.4,0,0.7,0.1c0.2,0.1,0.4,0.2,0.6,0.3c0.2,0.2,0.3,0.3,0.4,0.6  c0.1,0.2,0.1,0.4,0.1,0.7c0,0.4-0.1,0.7-0.3,1c-0.2,0.3-0.5,0.5-0.9,0.5l1.4,1.9h-0.7l-1.4-1.9h-1v1.9h-0.6L428.9,29.5z M434.3,32.1  c0-0.5-0.1-1-0.3-1.4c-0.2-0.5-0.5-0.9-0.8-1.2c-0.4-0.3-0.8-0.6-1.2-0.8c-0.5-0.2-0.9-0.3-1.4-0.3s-1,0.1-1.4,0.3  c-0.5,0.2-0.9,0.5-1.2,0.8c-0.3,0.4-0.6,0.8-0.8,1.2c-0.2,0.5-0.3,0.9-0.3,1.4s0.1,1,0.3,1.4c0.2,0.5,0.5,0.9,0.8,1.2  c0.4,0.4,0.8,0.6,1.2,0.8c0.5,0.2,0.9,0.3,1.4,0.3s1-0.1,1.5-0.3s0.9-0.5,1.2-0.8c0.4-0.4,0.6-0.8,0.8-1.3  C434.2,33.1,434.3,32.6,434.3,32.1L434.3,32.1z M426,32.1c0-0.6,0.1-1.2,0.4-1.7c0.2-0.5,0.6-1,1-1.4s0.9-0.7,1.5-1  c0.6-0.2,1.1-0.3,1.7-0.3s1.2,0.1,1.7,0.4c0.5,0.2,1,0.6,1.4,1s0.7,0.9,1,1.5c0.2,0.6,0.3,1.1,0.3,1.7c0,0.6-0.1,1.2-0.4,1.7  c-0.2,0.6-0.6,1-1,1.5c-0.4,0.4-0.9,0.7-1.5,1c-0.6,0.2-1.1,0.3-1.7,0.3s-1.2-0.1-1.8-0.3c-0.6-0.2-1.1-0.6-1.5-1s-0.8-0.9-1-1.5  C426,33.3,425.9,32.7,426,32.1z"></path>
</svg>
