<?xml version="1.0" encoding="UTF-8"?>
<!-- Generator: Adobe Illustrator 27.3.1, SVG Export Plug-In . SVG Version: 6.00 Build 0)  -->
<svg xmlns="http://www.w3.org/2000/svg" xmlns:xlink="http://www.w3.org/1999/xlink" version="1.1" id="Layer_1" x="0px" y="0px" width="250px" height="105px" viewBox="0 0 250 105" style="enable-background:new 0 0 250 105;" xml:space="preserve">
<style type="text/css">
	.st0{fill:#A7A7A7;}
</style>
<g>
	<g>
		<path class="st0" d="M142.9,18.5c0,6.6,0,13.8,0,21c0,0,0.6,0,0.6-0.6c5.3-2.5,10-3.1,15.3-0.6c4.7,1.9,7.8,5.9,9.4,10.6    c2.5,7.8,1.9,15.6-1.9,23.8c-3.1,5.3-7.8,8.4-14.7,10c-4.7,0.6-9.4,0.6-13.8,0c-2.5-0.6-5.3-0.6-8.4-1.3c0-1.9,0-3.1,0-5.3    c0-4.1,0-7.8,0-12.5c0-6.6,0-13.1,0-19.7c0-4.7,0-9.4-0.6-13.8c0-1.3-0.6-2.5-0.6-3.1c-0.6-1.9-1.9-1.9-4.1-2.5    c-1.3,0-1.3,0-1.3-1.3l0.6-0.6C130.7,21,136.6,19.8,142.9,18.5L142.9,18.5z M142.9,58.9L142.9,58.9c0,4.1,0,7.8,0,11.9    c0,2.5,0,5.3,0,7.8c0,0.6,0.6,1.3,0.6,1.3c1.9,0.6,4.1,0.6,5.9-0.6c2.5-1.3,4.1-4.1,4.7-5.9c2.5-7.2,3.1-14.7,1.3-21.9    c-0.6-1.3-1.3-3.1-1.9-4.7c-2.5-4.1-5.9-5.3-10.6-4.1l-0.6,0.6C142.9,48.2,142.9,53.6,142.9,58.9z"></path>
		<path class="st0" d="M41.2,61.4L41.2,61.4c-2.5,0.6-2.5,0.6-3.1-1.3c0-1.9-0.6-4.1-1.9-5.3c-1.3-0.6-1.9-1.3-4.1-1.9    c-1.9,0-4.7,0-6.6-0.6h-0.9c0,1.9,0,3.1,0,5.3c0,4.7,0,8.4,0.6,13.1c0,1.9,0.6,3.1,0.6,4.7c0.6,1.9,2.5,3.1,4.7,4.1    c1.3,0,1.9,0.6,3.1,0.6l0,0c0,2.5,0.6,1.9-1.9,1.9c-10,0-19.1,0-29.1,0c-1.3,0-1.9-0.6-1.3-1.9l0.6-0.9c0.6,0,1.9-0.6,2.5-0.6    c1.9,0,3.1-1.3,4.1-3.1c0.6-1.3,1.3-3.1,1.3-4.7c0.6-10,0.6-20.3,0.6-30.3c0-3.1,0-6.6-0.6-9.4c0-1.3-0.6-3.1-1.3-4.7    c0-1.9-1.9-3.1-4.1-4.1c-0.6,0-1.3,0-1.9,0s-0.6,0-0.6-0.6s0-1.3,0-1.9c16.3,0,33.5,0,50,0c0,1.3,0,3.1,0,4.7c0,4.1,0,7.8,0,11.9    c0,0.6,0,1.3-0.6,1.3c-1.9,0.6-1.9,0.6-2.5-1.3c-1.3-2.5-2.5-5.3-4.7-7.8c-1.9-2.5-4.7-4.1-8.4-4.1c-3.1,0-7.2,0-10.6,0    c-0.6,8.1-0.6,16.6-0.6,25c1.3,0,1.9,0,2.5,0c1.3,0,3.1,0,4.7,0c1.9,0,4.1-1.3,4.7-3.1c0.6-1.3,1.3-3.1,1.9-4.7    c0-0.6,0.6-0.6,0.6-0.6c0.6,0,1.3,0,1.9,0C41.2,47.6,41.2,54.8,41.2,61.4z"></path>
		<path class="st0" d="M46.5,60.1c0-5.9,1.3-11.3,5.3-15.6c3.1-4.1,7.8-6.6,13.1-7.2c4.1-0.6,7.8-0.6,11.9,0.6    c5.9,1.9,10,5.9,11.9,11.9c2.5,7.8,2.5,15.3-0.6,22.5C85,78.9,79.7,83,71.9,83.6c-4.1,0.6-7.8,0-11.9-1.3    c-5.9-1.9-10-6.6-11.9-12.5c-0.6-1.3-0.6-2.5-1.3-4.1C46.5,63.9,46.5,62,46.5,60.1z M59.7,59.5c0,1.9,0,3.1,0,5.3    c0,1.9,0.6,3.1,0.6,5.3c0.6,2.5,1.3,5.3,3.1,7.8s5.9,3.1,8.4,1.3c0.6-0.6,1.9-1.9,1.9-3.1c1.3-3.1,1.9-6.6,1.9-10    c0.6-4.7,0.6-10-0.6-14.7c-0.6-3.1-1.3-6.6-3.1-9.4c-2.5-4.1-7.8-4.1-10,0.6c-0.6,0.6-1.3,1.9-1.3,4.1    C59.7,50.7,59.7,54.8,59.7,59.5z"></path>
		<path class="st0" d="M213.2,58.3c-0.6,0-0.6,0-1.3,0c-7.8,0-15.6,0-24.4,0c-1.3,0-1.3,0-1.3,1.3c0,4.1,0.6,7.8,2.5,11.3    c2.5,4.1,5.9,5.9,11.3,6.6c4.1,0,7.2-0.6,10.6-2.5c0,0,0.6-0.6,0.6,0s1.3,0.6,0.6,1.3c-1.3,1.9-3.1,3.1-5.3,4.7    c-7.8,4.7-18.4,4.1-25-1.3c-4.1-3.1-6.6-7.8-7.8-13.1c-0.6-5.3-0.6-10.6,1.3-15.6c4.1-7.8,9.4-12.5,17.2-13.1    c3.1-0.6,6.6-0.6,10,0.6c5.3,1.9,7.8,5.9,10,10.6c0.6,2.5,1.3,5.3,1.3,8.4C213.2,56.7,213.2,56.7,213.2,58.3    C213.2,57.3,213.2,57.3,213.2,58.3z M200.7,54.2c0-2.5,0-4.7-0.6-6.6c0-1.9-0.6-4.7-1.9-6.6c-1.3-1.9-4.1-2.5-5.9-1.3    c-1.3,1.3-1.9,2.5-2.5,4.1c-1.9,3.1-2.5,6.6-2.5,10.6c0,0.6,0,0.6,0.6,0.6c1.3,0,2.5,0,4.1,0C194.8,54.2,197.3,54.2,200.7,54.2z"></path>
		<path class="st0" d="M245.4,50.7c0-0.6-0.6-1.3-0.6-1.9c-0.6-2.5-1.9-4.7-4.1-6.6c-1.9-1.9-4.1-2.5-6.6-2.5    c-3.1,0-5.9,3.1-5.3,6.6c0,1.9,1.3,3.1,2.5,4.7c2.5,1.9,5.3,3.1,8.4,4.1c2.5,1.3,5.3,2.5,7.8,4.7c1.9,1.9,2.5,4.7,2.5,7.2    c0,1.9,0,4.1-0.6,5.9c-1.3,4.7-4.7,7.2-9.4,8.4c-4.7,1.9-8.4,1.9-13.1,1.9c-3.1,0-6.6-0.6-10-1.9c-1.9-0.6-1.9-0.6-1.9-2.5    c0-3.1,0-7.2,0-10.6c0-1.3,0.6-0.6,1.3-1.3c0.6-0.6,0.6,0.6,0.6,0.6c1.3,2.5,2.5,5.3,4.7,7.8c2.5,2.5,5.9,4.1,10,3.1    c3.1-0.6,4.7-1.9,5.3-4.7c0.6-2.5,0-5.3-2.5-6.6c-1.9-1.3-4.1-1.9-6.6-3.1c-2.5-1.3-5.3-1.9-7.8-4.1c-3.1-2.5-4.7-6.6-4.1-10.6    c0.6-6.6,5.9-11.9,12.5-12.5c5.9-1.3,11.3-0.6,16.3,1.3c0.6,0,1.3,0.6,1.3,1.3c0,2.5,0,5.9,0,8.4    C247.6,50.7,247.6,50.7,245.4,50.7z"></path>
		<path class="st0" d="M109.1,36.4c0,3.1,0,6.6,0,10c0-0.6,0.6-0.6,0.6-0.6c1.3-2.5,3.1-5.3,5.3-6.6c3.1-2.5,6.6-3.1,10.6-1.3    c0.6,0,1.3,0.6,0.6,1.3c-1.3,3.1-2.5,6.6-4.1,10.6c0,0,0,0.6-0.6,0.6s-1.3-0.6-1.3-0.6c-3.1-1.3-6.6-1.9-10-0.6    c-1.3,0.6-1.9,1.3-1.9,2.5c0,5.3,0,10,0,15.3c0,3.1,0,5.9,0.6,9.4c0.6,2.5,1.3,4.1,4.7,4.1c0.6,0,1.3,0,2.5,0c0,0.6,0,1.3,0,1.9    c-8.4,0-17.8,0-26.3,0l0,0c0-1.9,0-1.9,1.9-2.5c2.5-0.6,3.1-1.3,4.1-4.1c0-1.9,0.6-3.1,0.6-5.3c0-5.3,0-10.6,0-15.6    c0-2.5,0-5.3-0.6-7.8c-0.6-3.1-1.3-4.1-4.7-4.7c-0.6,0-1.3,0-1.3-0.6s0-1.3,1.3-1.3c5.9-1.3,11.3-2.5,17.2-3.1    C108.5,36.4,109.1,36.4,109.1,36.4z"></path>
	</g>
</g>
</svg>
