<?xml version="1.0" encoding="UTF-8"?>
<!-- Generator: Adobe Illustrator 27.3.1, SVG Export Plug-In . SVG Version: 6.00 Build 0)  -->
<svg xmlns="http://www.w3.org/2000/svg" xmlns:xlink="http://www.w3.org/1999/xlink" version="1.1" id="Layer_1" x="0px" y="0px" width="437px" height="105px" viewBox="0 0 437 105" style="enable-background:new 0 0 437 105;" xml:space="preserve">
<style type="text/css">
	.st0{fill:#666667;}
	.st1{fill:#B7B7B6;}
</style>
<g id="layer1" transform="translate(37.192857,-635.97649)">
	<g id="layer1-3" transform="translate(-68.571428,182.85714)">
		<path id="path3348" class="st0" d="M89,529.5h15.8l8.5-48.6H97.5l-3.1,17.4H80.7l3.1-17.4H67.9l-8.5,48.6h15.8l3.2-18.2h13.7    L89,529.5z"></path>
		<path id="path3352" class="st0" d="M122.4,480.8l-4.8,27.1c-0.4,2.1-0.6,4.2-0.6,6.1c0,14.3,12.5,16.5,20.1,16.5    c15.8,0,22.6-5.2,25.1-19.4l5.3-30.3h-15.8l-4.5,25.4c-1.4,8-2.5,12.1-8.4,12.1c-3.9,0-5.7-2-5.7-6.3c0-1.6,0.2-3.6,0.7-6.1    l4.6-25.2L122.4,480.8L122.4,480.8z"></path>
		<path id="path3356" class="st0" d="M251.1,529.5H267l2.2-12.5h7.5c13.8,0,21.5-7.5,21.5-21.1c0-9.6-6.6-15.1-18.3-15.1h-20.2    L251.1,529.5z M275.8,504.9h-4.6l2.1-11.4h4.3c3.5,0,5.4,1.7,5.4,4.9C283,502.5,280.3,504.9,275.8,504.9z"></path>
		<path id="path3360" class="st0" d="M328.9,479.8c-17.2,0-27.5,11.1-27.5,29.9c0,13,8.2,20.8,21.9,20.8c17.2,0,27.5-11.1,27.5-29.9    C350.9,487.5,342.7,479.8,328.9,479.8L328.9,479.8z M324.3,517.9c-4.1,0-6.5-3-6.5-7.9c0-1.9,0.2-3.5,0.5-5.4    c1.2-6.4,3.3-12.2,9.7-12.2c4.1,0,6.5,3,6.5,7.9c0,1.9-0.2,3.5-0.5,5.4C332.8,512,330.7,517.9,324.3,517.9z"></path>
		<path id="path3364" class="st0" d="M406,529.5h15.8l6.3-35.6H440l2.3-13h-40.6l-2.3,13h12.7L406,529.5z"></path>
		<path id="path3366" class="st0" d="M379.7,498.8c-5-1.6-7-2.2-7-4.6c0-1.6,1-3.4,4-3.4c2.2,0,4.1,1.3,4.8,3.1l14-3.8    c-1.6-6.9-7.5-10.4-17.7-10.4c-19.2,0-20.7,12.8-20.7,16.8c0,8,4.2,12.8,13.4,15.4c2.4,0.7,5.2,1.4,5.2,4c0,2.1-1.6,3.4-4.3,3.4    c-2.5,0-5.1-1.4-6-4l-13.8,3.7c1.5,7.2,8.3,11.3,19,11.3c8.1,0,21.8-2.2,21.8-16.9C392.3,506.2,388.2,501.4,379.7,498.8    L379.7,498.8z"></path>
		<path id="path3370" class="st1" d="M50.6,529.5l8.6-48.6H32.9v48.6H50.6z"></path>
		<path id="path3374" class="st1" d="M449.1,480.8l-8.5,48.6h26.2v-48.6L449.1,480.8L449.1,480.8z"></path>
		<polygon id="polygon3376" class="st0" points="186.3,515.1 199.6,515.1 201.8,502.9 188.4,502.9 190,493.9 208.6,493.9     210.9,480.8 176.4,480.8 167.9,529.5 183.8,529.5   "></polygon>
		<polygon id="polygon3378" class="st0" points="227.8,515.1 241.2,515.1 243.3,502.9 230,502.9 231.5,493.9 250.1,493.9     252.4,480.8 218,480.8 209.5,529.5 225.3,529.5   "></polygon>
	</g>
</g>
</svg>
