<?xml version="1.0" encoding="UTF-8"?>
<!-- Generator: Adobe Illustrator 27.3.1, SVG Export Plug-In . SVG Version: 6.00 Build 0)  -->
<svg xmlns="http://www.w3.org/2000/svg" xmlns:xlink="http://www.w3.org/1999/xlink" version="1.1" id="Layer_1" x="0px" y="0px" width="220px" height="105px" viewBox="0 0 220 105" style="enable-background:new 0 0 220 105;" xml:space="preserve">
<style type="text/css">
	.st0{fill:#666666;}
	.st1{fill:#9A9A9A;}
</style>
<g>
	<path class="st0" d="M117.9,57.8V46h31.6c3.2,0,5.8,2.6,5.8,5.8v14c0,7.2-5.8,13.1-13.1,13.2H122c-15,0-27.1-12.1-27.1-27   S107,25,122,25h31.3v12.4H122c-8.1,0-14.7,6.5-14.7,14.6s6.5,14.6,14.7,14.6h20.9v-8.8H117.9L117.9,57.8z M90.8,24.9v4V79h-6.2   h-0.3c-3.2,0-5.8-2.6-5.8-5.8V34.1v-9.2C78.5,24.9,90.8,24.9,90.8,24.9z M213.3,24.9c3.2,0,5.8,2.6,5.8,5.8v35.9   c0,7.2-5.9,13-13.1,13h-0.2c-4.7,0-8.9-2.4-11.1-6.2L173.8,37c-0.2-0.3-0.5-0.4-0.7-0.4c-0.3,0-0.6,0.2-0.7,0.4   c-0.1,0.1-0.1,0.3-0.1,0.4V79h-6.5c-3.2,0-5.8-2.6-5.8-5.8V37.4c0-7.2,5.9-13,13.1-13h0.2c4.7,0,8.9,2.5,11.3,6.4L205.3,67   c0.3,0.3,0.5,0.5,0.8,0.5s0.6-0.2,0.7-0.4c0.1-0.1,0.1-0.2,0.1-0.3V25L213.3,24.9L213.3,24.9z"></path>
	<path class="st1" d="M16.6,40.1c-3.2,0.4-6.2,0.8-8.8,1.4c2.9-7.5,8.9-13.4,16.4-16.4c-0.6,2.6-1.1,5.5-1.4,8.8   C20.3,35.6,18.2,37.7,16.6,40.1z M46.5,33.9c-0.4-3.2-0.9-6.1-1.5-8.7c7.5,2.9,13.5,8.9,16.4,16.4c-2.6-0.6-5.5-1.1-8.8-1.4   C51.1,37.7,49,35.6,46.5,33.9L46.5,33.9z M22.8,70c0.4,3.2,0.8,6.2,1.4,8.8c-7.5-2.9-13.5-8.9-16.4-16.4c2.6,0.6,5.5,1.1,8.7,1.4   c0,0,0,0,0.1,0C18.2,66.3,20.3,68.4,22.8,70z M52.8,63.8c3.3-0.4,6.2-0.9,8.7-1.4c-2.9,7.5-8.9,13.5-16.5,16.4   c0.6-2.6,1.1-5.5,1.5-8.7c0,0,0,0,0-0.1C49,68.4,51.1,66.3,52.8,63.8C52.8,63.9,52.8,63.9,52.8,63.8z M67.4,46.6v10.6   c-5,2.3-12.5,3.3-15.1,3.5c-0.6,0.1-1.2,0.2-1.7,0.2l-8.1-9l8.1-9c0.5,0,0.9,0,1.5,0.1C54.7,43.4,62.4,44.3,67.4,46.6z M18.8,43   l8.1,9l-8.1,9c-0.5,0-1.1-0.1-1.7-0.2C14.5,60.5,7,59.6,2,57.3V46.6c5.1-2.4,12.7-3.3,15.3-3.5C17.8,43,18.3,43,18.8,43z    M25.7,67.9l9-8l9,8c0,0.5-0.1,1.1-0.2,1.7c-0.3,2.5-1.2,10-3.5,15.1H29.4C27,79.6,26.1,72,25.8,69.4   C25.7,68.8,25.7,68.4,25.7,67.9z M29.4,19.3H40c2.3,5,3.3,12.5,3.5,15.1c0.1,0.6,0.2,1.2,0.2,1.7l-9,8.1l-9-8.1   c0-0.5,0-0.9,0.1-1.5C26.1,32,27,24.4,29.4,19.3z"></path>
</g>
</svg>
