<?xml version="1.0" encoding="utf-8"?>
<!-- Generator: Adobe Illustrator 24.1.0, SVG Export Plug-In . SVG Version: 6.00 Build 0)  -->
<svg version="1.1" id="Layer_1" xmlns="http://www.w3.org/2000/svg" xmlns:xlink="http://www.w3.org/1999/xlink" x="0px" y="0px"
	 viewBox="0 0 119.3 29.4" style="enable-background:new 0 0 119.3 29.4;" xml:space="preserve">
<style type="text/css">
	.st0{fill:#6FBC44;}
</style>
<g>
	<g>
		<path class="st0" d="M31.5,23.4L25.9,6.1h5.3l1.8,7.5c0.4,1.8,1,4,1.3,6h0.1c0.3-2,0.7-4.2,1.2-6.1l1.7-7.4h5.3l-5.8,17.3
			L31.5,23.4L31.5,23.4z"/>
		<path class="st0" d="M48.2,19.5l-1.1,4h-4.7l5.5-17.3h5.9l4.9,17.3H54l-1.1-4H48.2z M52.3,16.8l-0.9-3.6c-0.2-1.1-0.6-2.8-0.9-4
			h-0.1c-0.2,1.2-0.6,3-0.9,4l-1,3.6H52.3z"/>
		<path class="st0" d="M61.3,23.4V6.1h4.5l3.9,6.8c0.7,1.4,1.9,3.5,2.7,5h0.1c-0.1-1.8-0.5-4.8-0.5-8V6.1h4.3v17.3h-4.5l-3.9-6.6
			c-0.9-1.5-1.9-3.6-2.6-5.2h-0.1c0.1,1.7,0.3,4.4,0.3,7.9v3.9h-4.2V23.4z"/>
		<path class="st0" d="M85.4,6.1v17.3h-4.9V6.1C80.4,6.1,85.4,6.1,85.4,6.1z"/>
		<path class="st0" d="M89.2,20c1,0.4,2.7,0.6,4.2,0.6c2.4,0,3.4-0.9,3.4-1.9c0-1.3-1.1-1.9-3.2-2.8c-3.4-1.4-4.7-3.3-4.7-4.8
			c0-2.8,2.7-5.1,7.9-5.1c1.6,0,3.2,0.3,4,0.6L100,9.5c-0.7-0.3-1.8-0.6-3.2-0.6c-2,0-3.1,0.9-3.1,1.8c0,1.1,0.7,1.6,3.4,2.7
			c3.3,1.4,4.5,3.1,4.5,4.9c0,3.2-3.4,5.2-8.3,5.2c-2,0-4-0.3-4.8-0.7L89.2,20z"/>
		<path class="st0" d="M109.2,6.1v7h5.1v-7h4.9v17.3h-4.9v-7.3h-5.1v7.3h-4.9V6.1C104.3,6.1,109.2,6.1,109.2,6.1z"/>
	</g>
	<g>
		<path d="M4.9,6.1v17.5H0V6.1C0,6.1,4.9,6.1,4.9,6.1z"/>
		<path d="M9,6.3C10.4,6.1,12.2,6,14.1,6c2.9,0,5.2,0.3,6.9,1.4c1.5,0.9,2.2,2.4,2.2,3.9c0,1.9-0.9,3.2-2.2,4.2
			c-1.6,1.2-4.1,1.6-6.1,1.6c-0.3,0-0.6,0-1,0v6.5H9C9,23.6,9,6.3,9,6.3z M13.8,14.3c0.2,0,0.5,0,0.8,0c2.5,0,3.6-1.2,3.6-2.8
			c0-1.5-0.9-2.7-3.2-2.7c-0.4,0-0.9,0-1.2,0.1v5.4H13.8z"/>
	</g>
</g>
</svg>
