<?xml version="1.0" encoding="utf-8"?>
<!-- Generator: Adobe Illustrator 25.3.1, SVG Export Plug-In . SVG Version: 6.00 Build 0)  -->
<svg version="1.1" id="Layer_1" xmlns="http://www.w3.org/2000/svg" xmlns:xlink="http://www.w3.org/1999/xlink" x="0px" y="0px"
	 viewBox="0 0 229.2 137" style="enable-background:new 0 0 229.2 137;" xml:space="preserve">
<style type="text/css">
	.st0{fill:#30363D;}
	.st1{fill:#70BC44;}
	.st2{fill:#89C658;}
	.st3{opacity:0.3;fill:#FFFFFF;enable-background:new    ;}
</style>
<g>
	<g>
		<path class="st0" d="M115.8,0.1L65.8,23.4v42.8c0,32.6,20.9,60.2,50.1,70.3c29.1-10.1,50-37.7,50-70.3V23.4L115.8,0.1z"/>
		<path class="st1" d="M115.8,10.6v115.7c24.4-9.9,40.5-33.6,40.5-60.1V29.5L115.8,10.6z"/>
		<path class="st2" d="M75.3,29.5v36.8c0,26.5,16.1,50.2,40.5,60.1V10.6L75.3,29.5z"/>
	</g>
	<g>
		<ellipse class="st3" cx="115.8" cy="67.1" rx="25.3" ry="25.3"/>
		<polygon class="st0" points="111.2,80.1 100.1,69 103.8,65.3 111.2,72.7 127.9,56 131.6,59.7 		"/>
	</g>
</g>
</svg>
