<?xml version="1.0" encoding="UTF-8"?>
<!-- Generator: Adobe Illustrator 27.3.1, SVG Export Plug-In . SVG Version: 6.00 Build 0)  -->
<svg xmlns="http://www.w3.org/2000/svg" xmlns:xlink="http://www.w3.org/1999/xlink" version="1.1" id="Layer_1" x="0px" y="0px" width="120px" height="105px" viewBox="0 0 120 105" style="enable-background:new 0 0 120 105;" xml:space="preserve">
<style type="text/css">
	.st0{fill:#666666;}
</style>
<g id="z9hXBh_1_">
	<g>
		<g>
			<path class="st0" d="M38.9,84c-2.9-14-5.8-28-8.7-42H30c-0.2,1.2-0.5,2.7-0.7,3.9c-2.4,12.3-4.6,24.6-7,36.9     c-0.2,1-0.5,1.2-1.4,1.2c-0.5,0-1.2,0-1.9,0c-1-4.3-1.9-8.4-2.7-12.8C12.6,55.7,9.4,40.1,6.1,24.4c0-0.5-0.2-1-0.5-1.4     c-0.2-1.2-1.2-2.2-2.4-2.4c-1,0-1.2-0.5-1-1.2c5.6,0,10.9,0,16.4,0c0.2,0.5,0.2,1-0.5,1.2c-2.9,0.7-3.6,1.7-3.1,4.6     c0.5,3.6,1.2,7.2,1.9,10.9c1.9,9.4,3.9,18.8,5.8,28.2c0,0.2,0,0.2,0.5,0.5c0.5-2.2,1-4.6,1.2-6.8c1.2-7,2.7-14,3.9-21.2     c0.2-1,0-2.2-0.2-3.4c-0.5-3.1-1.2-6.3-1.9-9.4c-0.2-1.7-1-3.1-3.1-3.4c-0.2,0-0.5-0.7-1-1.2c6,0,11.8,0,17.4,0     c0.2,0.7,0,1.2-0.7,1.2c-0.2,0-0.5,0-0.7,0.2C36,21,35,21.9,35,23.9c0.2,2.4,0.5,4.8,1,7.2c2.2,10.9,4.3,22,6.5,32.8     c0,0.2,0.2,0.5,0.5,0.7c0.5-2.4,1-4.6,1.4-7c1.9-9.4,3.9-18.8,5.8-28.2c0.2-1.4,0.5-2.7,0.5-4.1c0.2-3.1-0.7-4.1-3.6-4.6     c-1.2-0.5-1.2-0.5-1.2-1.4c3.9,0,7.7,0,11.6,0c0.2,0.7,0.2,1.2-0.7,1.4c-1.7,0.5-2.4,1.4-2.7,3.1c-1,3.6-1.7,7.2-2.4,10.9     C48.3,50.9,44.9,66.8,41.6,83C41.3,84.2,41.3,84.2,38.9,84z"></path>
			<path class="st0" d="M59.7,83.7c0-7,0-14,0-21c1-0.2,1.2,0,1.4,1c0.5,5.1,1.7,9.9,4.3,14.2c1.2,1.7,2.7,3.1,4.6,4.1     c3.6,1.4,7,0.2,8.7-3.4c2.2-5.1,1.9-9.9-0.7-14.7c-1.4-2.4-3.1-4.6-5.1-6.8c-2.9-3.1-5.8-6.3-8.7-9.4c-3.6-4.1-5.6-9.2-5.3-14.7     c0.2-4.6,1.7-8.9,5.6-11.8s8.9-2.9,12.8,0c0.2,0.2,0.5,0.2,0.7,0.5c2.2,1,3.6,0.5,4.3-1.7c0.5-1,0.5-1,1.2-1c0,7,0,14,0,21.2     c-0.2,0-0.7,0-1.2,0c0-0.5-0.2-0.7-0.2-1.2c-0.5-2.9-1-6-1.7-8.9c-0.5-2.4-1.7-4.8-3.4-6.8c-1.2-1.4-2.7-2.4-4.3-2.7     c-3.6-0.5-6,1.4-6.5,5.3c-0.7,4.1,0.2,7.7,2.7,11.1c1.9,2.7,4.1,4.8,6.3,7.2c2.4,2.7,4.8,5.1,7,7.7c5.6,7.5,7,15.7,3.1,24.4     c-2.7,6-9.2,9.2-14.7,7.5c-1.4-0.5-2.9-1.4-4.3-2.4c-2.2-1.4-3.9-1.2-4.8,1.4C60.9,83.5,60.6,84.2,59.7,83.7z"></path>
			<path class="st0" d="M100.4,19.1c6,0,12.1,0,18.3,0c0.2,0.7,0,1.2-0.7,1.4c-3.4,1-3.6,1.4-3.6,5.1c0,15,0,29.7,0,44.7     c0,4.1-1,7.7-4.1,10.6c-3.9,3.6-8.4,4.1-13.3,2.4c-4.1-1.4-6.5-5.8-6.8-10.6c0-1.9,0.2-3.6,1.7-5.3c1.2-1.4,2.9-2.4,4.8-2.2     c1.7,0.2,3.1,1.2,3.6,2.9c0.5,2.2,0.2,4.1-1.4,5.6c-0.7,0.7-1.4,1.2-2.4,1.7c-1.9,1.4-1.9,2.9-0.5,4.6c1.4,1.4,3.1,2.2,5.1,1.9     c2.2-0.2,3.1-1.7,3.6-3.6c0.5-1.4,0.7-3.1,0.7-4.8c0-16.4,0-32.8,0-49.2c0-2.2-0.7-3.1-2.9-3.6c-0.5-0.2-1-0.2-1.4-0.2     C100.4,20.5,100,20,100.4,19.1z"></path>
		</g>
	</g>
</g>
</svg>
